<svg xmlns="http://www.w3.org/2000/svg" width="14" height="10" viewBox="0 0 14 10">
	<defs>
		<style>.cls-1 {
			fill: #64ff6c;
			fill-rule: evenodd;
		}</style>
	</defs>
	<path id="TICK" class="cls-1" d="M309.707,184.766h0L302.04,192.7h0a0.976,0.976,0,0,1-1.414,0h0l-4.333-4.483h0a1.049,1.049,0,0,1-.293-0.731,1.018,1.018,0,0,1,1-1.035,0.981,0.981,0,0,1,.707.3h0l3.626,3.752,6.96-7.2h0A0.981,0.981,0,0,1,309,183a1.018,1.018,0,0,1,1,1.035A1.049,1.049,0,0,1,309.707,184.766Z" transform="translate(-296 -183)"/>
</svg>