<svg xmlns="http://www.w3.org/2000/svg" width="300" height="300" viewBox="0 0 300 300">
	<defs>
		<style>.cls-3 {
			fill: #a9adb5;
		}</style>
	</defs>
	<path class="cls-3" d="M105.07,42.1H20c-11.05,0-20-8.95-20-20V20C0,8.95,8.95,0,20,0l85.07,0c11.05,0,20,8.95,20,20v2.1
		C125.07,33.14,116.12,42.1,105.07,42.1z"/>
	<path class="cls-3" d="M280,42.1H166.4c-11.05,0-20-8.95-20-20V20c0-11.05,8.95-20,20-20L280,0c11.05,0,20,8.95,20,20v2.1
		C300,33.14,291.05,42.1,280,42.1z"/>
	<path class="cls-3" d="M280,106.57H20c-11.05,0-20-8.95-20-20v-2.1c0-11.05,8.95-20,20-20h260c11.05,0,20,8.95,20,20v2.1
		C300,97.62,291.05,106.57,280,106.57z"/>
	<path class="cls-3" d="M173.2,171.05H20c-11.05,0-20-8.95-20-20v-2.1c0-11.05,8.95-20,20-20h153.2c11.05,0,20,8.95,20,20v2.1
		C193.2,162.09,184.25,171.05,173.2,171.05z"/>
	<path class="cls-3" d="M280,171.05h-41c-11.05,0-20-8.95-20-20v-2.1c0-11.05,8.95-20,20-20h41c11.05,0,20,8.95,20,20v2.1
		C300,162.09,291.05,171.05,280,171.05z"/>
	<path class="cls-3" d="M120.8,235.52H20c-11.05,0-20-8.95-20-20v-2.1c0-11.05,8.95-20,20-20h100.8c11.05,0,20,8.95,20,20v2.1
		C140.8,226.57,131.84,235.52,120.8,235.52z"/>
	<path class="cls-3" d="M280,235.52h-96.82c-11.05,0-20-8.95-20-20v-2.1c0-11.05,8.95-20,20-20H280c11.05,0,20,8.95,20,20v2.1
		C300,226.57,291.05,235.52,280,235.52z"/>
	<path class="cls-3" d="M280,300h-61.24c-11.05,0-20-8.95-20-20v-2.1c0-11.05,8.95-20,20-20H280c11.05,0,20,8.95,20,20v2.1
		C300,291.05,291.05,300,280,300z"/>
	<path class="cls-3" d="M147.51,300H20c-11.05,0-20-8.95-20-20v-2.1c0-11.05,8.95-20,20-20h127.51c11.05,0,20,8.95,20,20v2.1
		C167.51,291.05,158.56,300,147.51,300z"/>
</svg>
