<svg xmlns="http://www.w3.org/2000/svg" width="300" height="300" viewBox="0 0 300 300">
	<defs>
		<style>.cls-2 {
			fill: #a9adb5;
		}</style>
	</defs>
	<path class="cls-2" d="M280,42.1H20c-11.05,0-20-8.95-20-20V20C0,8.95,8.95,0,20,0l260,0c11.05,0,20,8.95,20,20v2.1
		C300,33.14,291.05,42.1,280,42.1z"/>
	<path class="cls-2" d="M280,106.57H20c-11.05,0-20-8.95-20-20v-2.1c0-11.05,8.95-20,20-20h260c11.05,0,20,8.95,20,20v2.1
		C300,97.62,291.05,106.57,280,106.57z"/>
	<path class="cls-2" d="M280,171.05H20c-11.05,0-20-8.95-20-20v-2.1c0-11.05,8.95-20,20-20h260c11.05,0,20,8.95,20,20v2.1
		C300,162.09,291.05,171.05,280,171.05z"/>
	<path class="cls-2" d="M280,235.52H20c-11.05,0-20-8.95-20-20v-2.1c0-11.05,8.95-20,20-20h260c11.05,0,20,8.95,20,20v2.1
		C300,226.57,291.05,235.52,280,235.52z"/>
	<path class="cls-2" d="M280,300H20c-11.05,0-20-8.95-20-20v-2.1c0-11.05,8.95-20,20-20h260c11.05,0,20,8.95,20,20v2.1
		C300,291.05,291.05,300,280,300z"/>
</svg>
